<?xml version="1.0" encoding="utf-8"?>
<!-- Generator: Adobe Illustrator 19.1.0, SVG Export Plug-In . SVG Version: 6.00 Build 0)  -->
<svg version="1.1" id="Layer_1" xmlns="http://www.w3.org/2000/svg" xmlns:xlink="http://www.w3.org/1999/xlink" x="0px" y="0px"
	 viewBox="-279 197.8 52.2 399.2" style="enable-background:new -279 197.8 52.2 399.2;" xml:space="preserve">
<style type="text/css">
	.st0{fill:#5E94FF;}
	.st1{fill:#E8E8E8;}
	.st2{fill:#34A853;}
	.st3{fill:#FFFFFF;}
</style>
<path class="st0" d="M-252.9,197.8c-14.4,0-26.1,11.7-26.1,26.1v347c0,14.4,11.7,26.1,26.1,26.1s26.1-11.7,26.1-26.1v-347
	C-226.8,209.5-238.5,197.8-252.9,197.8z M-242.7,582.2c0,5.6-4.6,10.2-10.2,10.2s-10.2-4.6-10.2-10.2V555c0-3.5,1.8-6.7,4.7-8.6V231
	c0-3.2,2.6-5.9,5.9-5.9s5.9,2.6,5.9,5.9v315.9c2.5,1.9,4,4.9,4,8.1L-242.7,582.2L-242.7,582.2z"/>
<path class="st1" d="M-252.9,200.6c-12.9,0-23.3,10.4-23.3,23.3v347c0,12.8,10.4,23.2,23.2,23.2s23.2-10.4,23.2-23.2v-347
	C-229.7,211-240.1,200.6-252.9,200.6z M-245.5,582.2c0,4.1-3.3,7.4-7.4,7.4s-7.4-3.3-7.4-7.4V555c0-3.1,1.9-5.8,4.7-6.9V231
	c0-1.7,1.4-3,3-3s3,1.4,3,3v317.4c2.4,1.2,4,3.7,4,6.6L-245.5,582.2L-245.5,582.2z"/>
<g>
	<g>
		<rect x="-271.3" y="533.7" class="st2" width="10.8" height="1.5"/>
	</g>
	<g>
		<rect x="-271.3" y="511.4" class="st2" width="10.8" height="1.5"/>
	</g>
	<g>
		<rect x="-271.3" y="489.2" class="st2" width="10.8" height="1.5"/>
	</g>
	<g>
		<rect x="-271.3" y="466.9" class="st2" width="10.8" height="1.5"/>
	</g>
	<g>
		<rect x="-271.3" y="444.7" class="st2" width="10.8" height="1.5"/>
	</g>
	<g>
		<rect x="-271.3" y="422.4" class="st2" width="10.8" height="1.5"/>
	</g>
	<g>
		<rect x="-271.3" y="400.1" class="st2" width="10.8" height="1.5"/>
	</g>
	<g>
		<rect x="-271.3" y="377.9" class="st2" width="10.8" height="1.5"/>
	</g>
	<g>
		<rect x="-271.3" y="355.6" class="st2" width="10.8" height="1.5"/>
	</g>
	<g>
		<rect x="-271.3" y="333.4" class="st2" width="10.8" height="1.5"/>
	</g>
	<g>
		<rect x="-271.3" y="311.1" class="st2" width="10.8" height="1.5"/>
	</g>
	<g>
		<rect x="-271.3" y="288.9" class="st2" width="10.8" height="1.5"/>
	</g>
	<g>
		<rect x="-271.3" y="266.6" class="st2" width="10.8" height="1.5"/>
	</g>
	<g>
		<rect x="-271.3" y="244.4" class="st2" width="10.8" height="1.5"/>
	</g>
	<g>
		<g>
			<rect x="-265.2" y="262.3" class="st2" width="4.6" height="1"/>
		</g>
		<g>
			<rect x="-265.2" y="258" class="st2" width="4.6" height="1"/>
		</g>
		<g>
			<rect x="-265.2" y="253.8" class="st2" width="4.6" height="1"/>
		</g>
		<g>
			<rect x="-265.2" y="249.5" class="st2" width="4.6" height="1"/>
		</g>
	</g>
	<g>
		<g>
			<rect x="-265.2" y="284.4" class="st2" width="4.6" height="1"/>
		</g>
		<g>
			<rect x="-265.2" y="280.1" class="st2" width="4.6" height="1"/>
		</g>
		<g>
			<rect x="-265.2" y="275.9" class="st2" width="4.6" height="1"/>
		</g>
		<g>
			<rect x="-265.2" y="271.6" class="st2" width="4.6" height="1"/>
		</g>
	</g>
	<g>
		<g>
			<rect x="-265.2" y="306.3" class="st2" width="4.6" height="1"/>
		</g>
		<g>
			<rect x="-265.2" y="302" class="st2" width="4.6" height="1"/>
		</g>
		<g>
			<rect x="-265.2" y="297.8" class="st2" width="4.6" height="1"/>
		</g>
		<g>
			<rect x="-265.2" y="293.5" class="st2" width="4.6" height="1"/>
		</g>
	</g>
	<g>
		<g>
			<rect x="-265.2" y="328.3" class="st2" width="4.6" height="1"/>
		</g>
		<g>
			<rect x="-265.2" y="324" class="st2" width="4.6" height="1"/>
		</g>
		<g>
			<rect x="-265.2" y="319.8" class="st2" width="4.6" height="1"/>
		</g>
		<g>
			<rect x="-265.2" y="315.5" class="st2" width="4.6" height="1"/>
		</g>
	</g>
	<g>
		<g>
			<rect x="-265.2" y="351.3" class="st2" width="4.6" height="1"/>
		</g>
		<g>
			<rect x="-265.2" y="347" class="st2" width="4.6" height="1"/>
		</g>
		<g>
			<rect x="-265.2" y="342.8" class="st2" width="4.6" height="1"/>
		</g>
		<g>
			<rect x="-265.2" y="338.5" class="st2" width="4.6" height="1"/>
		</g>
	</g>
	<g>
		<g>
			<rect x="-265.2" y="373.6" class="st2" width="4.6" height="1"/>
		</g>
		<g>
			<rect x="-265.2" y="369.3" class="st2" width="4.6" height="1"/>
		</g>
		<g>
			<rect x="-265.2" y="365" class="st2" width="4.6" height="1"/>
		</g>
		<g>
			<rect x="-265.2" y="360.8" class="st2" width="4.6" height="1"/>
		</g>
	</g>
	<g>
		<g>
			<rect x="-265.2" y="395.4" class="st2" width="4.6" height="1"/>
		</g>
		<g>
			<rect x="-265.2" y="391.1" class="st2" width="4.6" height="1"/>
		</g>
		<g>
			<rect x="-265.2" y="386.9" class="st2" width="4.6" height="1"/>
		</g>
		<g>
			<rect x="-265.2" y="382.6" class="st2" width="4.6" height="1"/>
		</g>
	</g>
	<g>
		<g>
			<rect x="-265.2" y="417.1" class="st2" width="4.6" height="1"/>
		</g>
		<g>
			<rect x="-265.2" y="412.8" class="st2" width="4.6" height="1"/>
		</g>
		<g>
			<rect x="-265.2" y="408.6" class="st2" width="4.6" height="1"/>
		</g>
		<g>
			<rect x="-265.2" y="404.3" class="st2" width="4.6" height="1"/>
		</g>
	</g>
	<g>
		<g>
			<rect x="-265.2" y="440.4" class="st2" width="4.6" height="1"/>
		</g>
		<g>
			<rect x="-265.2" y="436.1" class="st2" width="4.6" height="1"/>
		</g>
		<g>
			<rect x="-265.2" y="431.9" class="st2" width="4.6" height="1"/>
		</g>
		<g>
			<rect x="-265.2" y="427.6" class="st2" width="4.6" height="1"/>
		</g>
	</g>
	<g>
		<g>
			<rect x="-265.2" y="462.4" class="st2" width="4.6" height="1"/>
		</g>
		<g>
			<rect x="-265.2" y="458.1" class="st2" width="4.6" height="1"/>
		</g>
		<g>
			<rect x="-265.2" y="453.9" class="st2" width="4.6" height="1"/>
		</g>
		<g>
			<rect x="-265.2" y="449.6" class="st2" width="4.6" height="1"/>
		</g>
	</g>
	<g>
		<g>
			<rect x="-265.2" y="484.2" class="st2" width="4.6" height="1"/>
		</g>
		<g>
			<rect x="-265.2" y="480" class="st2" width="4.6" height="1"/>
		</g>
		<g>
			<rect x="-265.2" y="475.7" class="st2" width="4.6" height="1"/>
		</g>
		<g>
			<rect x="-265.2" y="471.5" class="st2" width="4.6" height="1"/>
		</g>
	</g>
	<g>
		<g>
			<rect x="-265.2" y="506.2" class="st2" width="4.6" height="1"/>
		</g>
		<g>
			<rect x="-265.2" y="502" class="st2" width="4.6" height="1"/>
		</g>
		<g>
			<rect x="-265.2" y="497.7" class="st2" width="4.6" height="1"/>
		</g>
		<g>
			<rect x="-265.2" y="493.5" class="st2" width="4.6" height="1"/>
		</g>
	</g>
	<g>
		<g>
			<rect x="-265.2" y="529.2" class="st2" width="4.6" height="1"/>
		</g>
		<g>
			<rect x="-265.2" y="525" class="st2" width="4.6" height="1"/>
		</g>
		<g>
			<rect x="-265.2" y="520.7" class="st2" width="4.6" height="1"/>
		</g>
		<g>
			<rect x="-265.2" y="516.5" class="st2" width="4.6" height="1"/>
		</g>
	</g>
</g>
<g>
	<g>
		<rect x="-244.7" y="533.7" class="st2" width="10.8" height="1.5"/>
	</g>
	<g>
		<rect x="-244.7" y="511.4" class="st2" width="10.8" height="1.5"/>
	</g>
	<g>
		<rect x="-244.7" y="489.2" class="st2" width="10.8" height="1.5"/>
	</g>
	<g>
		<rect x="-244.7" y="466.9" class="st2" width="10.8" height="1.5"/>
	</g>
	<g>
		<rect x="-244.7" y="444.7" class="st2" width="10.8" height="1.5"/>
	</g>
	<g>
		<rect x="-244.7" y="422.4" class="st2" width="10.8" height="1.5"/>
	</g>
	<g>
		<rect x="-244.7" y="400.1" class="st2" width="10.8" height="1.5"/>
	</g>
	<g>
		<rect x="-244.7" y="377.9" class="st2" width="10.8" height="1.5"/>
	</g>
	<g>
		<rect x="-244.7" y="355.6" class="st2" width="10.8" height="1.5"/>
	</g>
	<g>
		<rect x="-244.7" y="333.4" class="st2" width="10.8" height="1.5"/>
	</g>
	<g>
		<rect x="-244.7" y="311.1" class="st2" width="10.8" height="1.5"/>
	</g>
	<g>
		<rect x="-244.7" y="288.9" class="st2" width="10.8" height="1.5"/>
	</g>
	<g>
		<rect x="-244.7" y="266.6" class="st2" width="10.8" height="1.5"/>
	</g>
	<g>
		<rect x="-244.7" y="244.4" class="st2" width="10.8" height="1.5"/>
	</g>
	<g>
		<g>
			<rect x="-244.6" y="262.3" class="st2" width="4.6" height="1"/>
		</g>
		<g>
			<rect x="-244.6" y="258" class="st2" width="4.6" height="1"/>
		</g>
		<g>
			<rect x="-244.6" y="253.8" class="st2" width="4.6" height="1"/>
		</g>
		<g>
			<rect x="-244.6" y="249.5" class="st2" width="4.6" height="1"/>
		</g>
	</g>
	<g>
		<g>
			<rect x="-244.6" y="284.4" class="st2" width="4.6" height="1"/>
		</g>
		<g>
			<rect x="-244.6" y="280.1" class="st2" width="4.6" height="1"/>
		</g>
		<g>
			<rect x="-244.6" y="275.9" class="st2" width="4.6" height="1"/>
		</g>
		<g>
			<rect x="-244.6" y="271.6" class="st2" width="4.6" height="1"/>
		</g>
	</g>
	<g>
		<g>
			<rect x="-244.6" y="306.3" class="st2" width="4.6" height="1"/>
		</g>
		<g>
			<rect x="-244.6" y="302" class="st2" width="4.6" height="1"/>
		</g>
		<g>
			<rect x="-244.6" y="297.8" class="st2" width="4.6" height="1"/>
		</g>
		<g>
			<rect x="-244.6" y="293.5" class="st2" width="4.6" height="1"/>
		</g>
	</g>
	<g>
		<g>
			<rect x="-244.6" y="328.3" class="st2" width="4.6" height="1"/>
		</g>
		<g>
			<rect x="-244.6" y="324" class="st2" width="4.6" height="1"/>
		</g>
		<g>
			<rect x="-244.6" y="319.8" class="st2" width="4.6" height="1"/>
		</g>
		<g>
			<rect x="-244.6" y="315.5" class="st2" width="4.6" height="1"/>
		</g>
	</g>
	<g>
		<g>
			<rect x="-244.6" y="351.3" class="st2" width="4.6" height="1"/>
		</g>
		<g>
			<rect x="-244.6" y="347" class="st2" width="4.6" height="1"/>
		</g>
		<g>
			<rect x="-244.6" y="342.8" class="st2" width="4.6" height="1"/>
		</g>
		<g>
			<rect x="-244.6" y="338.5" class="st2" width="4.6" height="1"/>
		</g>
	</g>
	<g>
		<g>
			<rect x="-244.6" y="373.6" class="st2" width="4.6" height="1"/>
		</g>
		<g>
			<rect x="-244.6" y="369.3" class="st2" width="4.6" height="1"/>
		</g>
		<g>
			<rect x="-244.6" y="365" class="st2" width="4.6" height="1"/>
		</g>
		<g>
			<rect x="-244.6" y="360.8" class="st2" width="4.6" height="1"/>
		</g>
	</g>
	<g>
		<g>
			<rect x="-244.6" y="395.4" class="st2" width="4.6" height="1"/>
		</g>
		<g>
			<rect x="-244.6" y="391.1" class="st2" width="4.6" height="1"/>
		</g>
		<g>
			<rect x="-244.6" y="386.9" class="st2" width="4.6" height="1"/>
		</g>
		<g>
			<rect x="-244.6" y="382.6" class="st2" width="4.6" height="1"/>
		</g>
	</g>
	<g>
		<g>
			<rect x="-244.6" y="417.1" class="st2" width="4.6" height="1"/>
		</g>
		<g>
			<rect x="-244.6" y="412.8" class="st2" width="4.6" height="1"/>
		</g>
		<g>
			<rect x="-244.6" y="408.6" class="st2" width="4.6" height="1"/>
		</g>
		<g>
			<rect x="-244.6" y="404.3" class="st2" width="4.6" height="1"/>
		</g>
	</g>
	<g>
		<g>
			<rect x="-244.6" y="440.4" class="st2" width="4.6" height="1"/>
		</g>
		<g>
			<rect x="-244.6" y="436.1" class="st2" width="4.6" height="1"/>
		</g>
		<g>
			<rect x="-244.6" y="431.9" class="st2" width="4.6" height="1"/>
		</g>
		<g>
			<rect x="-244.6" y="427.6" class="st2" width="4.6" height="1"/>
		</g>
	</g>
	<g>
		<g>
			<rect x="-244.6" y="462.4" class="st2" width="4.6" height="1"/>
		</g>
		<g>
			<rect x="-244.6" y="458.1" class="st2" width="4.6" height="1"/>
		</g>
		<g>
			<rect x="-244.6" y="453.9" class="st2" width="4.6" height="1"/>
		</g>
		<g>
			<rect x="-244.6" y="449.6" class="st2" width="4.6" height="1"/>
		</g>
	</g>
	<g>
		<g>
			<rect x="-244.6" y="484.2" class="st2" width="4.6" height="1"/>
		</g>
		<g>
			<rect x="-244.6" y="480" class="st2" width="4.6" height="1"/>
		</g>
		<g>
			<rect x="-244.6" y="475.7" class="st2" width="4.6" height="1"/>
		</g>
		<g>
			<rect x="-244.6" y="471.5" class="st2" width="4.6" height="1"/>
		</g>
	</g>
	<g>
		<g>
			<rect x="-244.6" y="506.2" class="st2" width="4.6" height="1"/>
		</g>
		<g>
			<rect x="-244.6" y="502" class="st2" width="4.6" height="1"/>
		</g>
		<g>
			<rect x="-244.6" y="497.7" class="st2" width="4.6" height="1"/>
		</g>
		<g>
			<rect x="-244.6" y="493.5" class="st2" width="4.6" height="1"/>
		</g>
	</g>
	<g>
		<g>
			<rect x="-244.6" y="529.2" class="st2" width="4.6" height="1"/>
		</g>
		<g>
			<rect x="-244.6" y="525" class="st2" width="4.6" height="1"/>
		</g>
		<g>
			<rect x="-244.6" y="520.7" class="st2" width="4.6" height="1"/>
		</g>
		<g>
			<rect x="-244.6" y="516.5" class="st2" width="4.6" height="1"/>
		</g>
	</g>
</g>
<path class="st3" d="M-252.8,581.2v1.9h3.1c-0.1,0.8-0.9,2.3-3.1,2.3c-1.9,0-3.4-1.5-3.4-3.4c0-1.9,1.5-3.4,3.4-3.4
	c1.1,0,1.8,0.4,2.2,0.8l1.5-1.4c-0.9-0.9-2.2-1.4-3.6-1.4c-3,0-5.4,2.4-5.4,5.4s2.4,5.4,5.4,5.4c3.1,0,5.2-2.2,5.2-5.3
	c0-0.4,0-0.6-0.1-0.9H-252.8L-252.8,581.2L-252.8,581.2z"/>
</svg>
